<?xml version="1.0" encoding="UTF-8"?>
<svg xmlns="http://www.w3.org/2000/svg" viewBox="0 0 100 100">
  <defs>
    <linearGradient id="proton-fill">
      <stop offset="0" stop-color="rgb(244, 129, 225)"/>
      <stop offset="1" stop-color="rgb(127, 96, 255)"/>
    </linearGradient>
    <linearGradient id="proton-highlight">
      <stop offset="0" stop-color="rgb(229, 79, 205)"/>
      <stop offset="1" stop-color="rgb(109, 74, 255)"/>
    </linearGradient>
    <radialGradient id="fill-radial" href="#proton-fill" gradientUnits="userSpaceOnUse" cx="169.235" cy="284.533" r="93.42" gradientTransform="matrix(0.180715, -1.29921, 2.297425, 0.319562, -454.735626, 409.431061)"/>
    <radialGradient id="highlight-radial" href="#proton-highlight" gradientUnits="userSpaceOnUse" cx="205.974" cy="264.857" r="93.42" gradientTransform="matrix(0.334784, -1.409653, 3.440233, 0.817034, -768.451111, 354.025543)"/>
    <mask id="highlight-mask">
      <rect x="133.629" y="115.607" width="186.839" height="186.839" rx="29" ry="29" fill="rgb(255, 255, 255)"/>
    </mask>
    <!-- Knock the branch glyph out of the diamond: white = kept, black = removed.
         Applied in the 100x100 canvas space (userSpaceOnUse), so the branch shape
         becomes transparent and the background shows through it. -->
    <mask id="branch-cutout" maskUnits="userSpaceOnUse" x="0" y="0" width="100" height="100">
      <rect x="0" y="0" width="100" height="100" fill="rgb(255, 255, 255)"/>
      <g fill="none" stroke="rgb(0, 0, 0)" stroke-width="6.471635" stroke-linecap="round" stroke-linejoin="round">
        <path stroke-linecap="butt" d="M 36.877739 18.122091 L 49.99983 31.244181 L 67.61085 50.0"/>
        <path d="M 50.09997 31.384513 L 49.99983 71.949741"/>
      </g>
      <g fill="rgb(0, 0, 0)">
        <circle cx="49.99983" cy="31.244181" r="6.812247"/>
        <circle cx="67.61085" cy="50.0" r="6.812247"/>
        <circle cx="49.99983" cy="71.949741" r="6.812247"/>
      </g>
    </mask>
  </defs>
  <!-- Transparent-cutout variant: the diamond with the branch knocked out, so
       whatever sits behind the logo shows through the branch (negative space). -->
  <g mask="url(#branch-cutout)">
    <g transform="matrix(0.340612, 0, 0, 0.340612, -109.419374, -11.902626)">
      <rect x="149.001" y="100.235" width="186.839" height="186.839" rx="29" ry="29" fill="url(#fill-radial)" transform="translate(242.421 193.655) matrix(0.707107, 0.707107, -0.707107, 0.707107, 225.616514, -11.915162) translate(-242.421 -193.655)"/>
      <rect x="149.001" y="100.235" width="186.839" height="186.839" rx="29" ry="29" fill="url(#highlight-radial)" mask="url(#highlight-mask)" transform="translate(242.421 193.655) matrix(0.707107, 0.707107, -0.707107, 0.707107, 225.616529, -11.915153) translate(-242.421 -193.655)"/>
    </g>
  </g>
</svg>
